# xmcd
#
# Track frame offsets: 
#        150
#        12634
#        29177
#        46410
#        60424
#        78736
#        99417
#        117011
#        131636
#        146544
#        171316
#        187680
#        212133
#        223014
#        241888
#        259311
#        273341
#
# Disc length: 4139 seconds
#
# Revision: 0
# Processed by: cddbd v1.5.2PL0 Copyright (c) Steve Scherf et al.
# Submitted via: ExactAudioCopy v0.95b2
#
DISCID=fc102911
DTITLE=Sarah Theron - Diva.RSA
DYEAR=2007
DGENRE=Blues
TTITLE0=Al lê die berge nog so blou
TTITLE1=Change the World
TTITLE2=Beste Vriende
TTITLE3=Before you accuse me
TTITLE4=Kyk hoe glinster die maan
TTITLE5=Stop nou die Bull Shit
TTITLE6=Die Strollers
TTITLE7=Pearl's a Singer
TTITLE8=Smackwater Jack
TTITLE9=Hekke van Paradise
TTITLE10=Mang le Mang
TTITLE11=Sprokietyd
TTITLE12=Stormy Monday
TTITLE13=Blink Vosperd Groove
TTITLE14=Ndihamba Nawe (Vat my huis toe)
TTITLE15=Al lê die berge nog so blou - Reprise
TTITLE16=Home
EXTD=
EXTT0=
EXTT1=
EXTT2=
EXTT3=
EXTT4=
EXTT5=
EXTT6=
EXTT7=
EXTT8=
EXTT9=
EXTT10=
EXTT11=
EXTT12=
EXTT13=
EXTT14=
EXTT15=
EXTT16=
PLAYORDER=
